<svg xmlns="http://www.w3.org/2000/svg" viewBox="0 0 100 100">
  <rect width="100" height="100" rx="20" fill="#003399"/>
  <path d="M50 15 C63.81 15 75 26.19 75 40 C75 48.84 69.49 56.41 61.5 59.93 L61.5 68 C61.5 70.48 59.48 72.5 57 72.5 L43 72.5 C40.52 72.5 38.5 70.48 38.5 68 L38.5 59.93 C30.51 56.41 25 48.84 25 40 C25 26.19 36.19 15 50 15 Z" fill="#FFEB3B"/>
  <rect x="38.5" y="72.5" width="23" height="10" fill="#B0BEC5"/>
  <rect x="36" y="77.5" width="28" height="2.5" fill="#90A4AE"/>
  <rect x="36" y="82.5" width="28" height="2.5" fill="#90A4AE"/>
  <text x="50" y="53" font-family="Arial, sans-serif" font-size="28" font-weight="bold" text-anchor="middle" fill="#000000">AM</text>
</svg>
